<mxfile host="app.diagrams.net" modified="2023-11-06T04:55:59.158Z" agent="Mozilla/5.0 (Windows NT 10.0; Win64; x64) AppleWebKit/537.36 (KHTML, like Gecko) Chrome/116.0.0.0 Safari/537.36 OPR/102.0.0.0 (Edition Yx GX)" etag="GiQhHHR6RYSj3W4kQOfv" version="22.0.8" type="github">
  <diagram name="Страница — 1" id="eFICceeORej1MZvHSRXp">
    <mxGraphModel dx="1009" dy="542" grid="1" gridSize="10" guides="1" tooltips="1" connect="1" arrows="1" fold="1" page="1" pageScale="1" pageWidth="827" pageHeight="1169" math="0" shadow="0">
      <root>
        <mxCell id="0" />
        <mxCell id="1" parent="0" />
        <mxCell id="Fm9rnHp7RG0YBLzyEwUu-38" value="" style="rounded=0;whiteSpace=wrap;html=1;shadow=0;" vertex="1" parent="1">
          <mxGeometry y="350" width="830" height="420" as="geometry" />
        </mxCell>
        <mxCell id="Fm9rnHp7RG0YBLzyEwUu-37" value="" style="rounded=0;whiteSpace=wrap;html=1;shadow=0;" vertex="1" parent="1">
          <mxGeometry width="830" height="350" as="geometry" />
        </mxCell>
        <mxCell id="Fm9rnHp7RG0YBLzyEwUu-2" value="Разработка программы" style="rounded=0;whiteSpace=wrap;html=1;" vertex="1" parent="1">
          <mxGeometry x="220" y="130" width="310" height="110" as="geometry" />
        </mxCell>
        <mxCell id="Fm9rnHp7RG0YBLzyEwUu-3" value="" style="endArrow=classic;html=1;rounded=0;entryX=0;entryY=0.5;entryDx=0;entryDy=0;" edge="1" parent="1" target="Fm9rnHp7RG0YBLzyEwUu-2">
          <mxGeometry width="50" height="50" relative="1" as="geometry">
            <mxPoint x="90" y="140" as="sourcePoint" />
            <mxPoint x="140" y="190" as="targetPoint" />
            <Array as="points">
              <mxPoint x="150" y="140" />
              <mxPoint x="150" y="185" />
            </Array>
          </mxGeometry>
        </mxCell>
        <mxCell id="Fm9rnHp7RG0YBLzyEwUu-4" value="" style="endArrow=classic;html=1;rounded=0;entryX=0;entryY=0.5;entryDx=0;entryDy=0;" edge="1" parent="1">
          <mxGeometry width="50" height="50" relative="1" as="geometry">
            <mxPoint x="530" y="180" as="sourcePoint" />
            <mxPoint x="660" y="225" as="targetPoint" />
            <Array as="points">
              <mxPoint x="590" y="180" />
              <mxPoint x="590" y="225" />
            </Array>
          </mxGeometry>
        </mxCell>
        <mxCell id="Fm9rnHp7RG0YBLzyEwUu-5" value="Данные о мебели" style="text;html=1;strokeColor=none;fillColor=none;align=center;verticalAlign=middle;whiteSpace=wrap;rounded=0;" vertex="1" parent="1">
          <mxGeometry x="150" y="110" width="60" height="30" as="geometry" />
        </mxCell>
        <mxCell id="Fm9rnHp7RG0YBLzyEwUu-6" value="Программное решение" style="text;html=1;strokeColor=none;fillColor=none;align=center;verticalAlign=middle;whiteSpace=wrap;rounded=0;" vertex="1" parent="1">
          <mxGeometry x="580" y="150" width="90" height="30" as="geometry" />
        </mxCell>
        <mxCell id="Fm9rnHp7RG0YBLzyEwUu-7" value="Цель:" style="text;html=1;strokeColor=none;fillColor=none;align=center;verticalAlign=middle;whiteSpace=wrap;rounded=0;" vertex="1" parent="1">
          <mxGeometry x="50" y="20" width="60" height="30" as="geometry" />
        </mxCell>
        <mxCell id="Fm9rnHp7RG0YBLzyEwUu-8" value="Точка зрения:" style="text;html=1;strokeColor=none;fillColor=none;align=center;verticalAlign=middle;whiteSpace=wrap;rounded=0;" vertex="1" parent="1">
          <mxGeometry x="50" y="60" width="60" height="30" as="geometry" />
        </mxCell>
        <mxCell id="Fm9rnHp7RG0YBLzyEwUu-9" value="Создать программу для автоматизациии мебельного производства" style="text;html=1;strokeColor=none;fillColor=none;align=center;verticalAlign=middle;whiteSpace=wrap;rounded=0;" vertex="1" parent="1">
          <mxGeometry x="110" y="20" width="240" height="30" as="geometry" />
        </mxCell>
        <mxCell id="Fm9rnHp7RG0YBLzyEwUu-10" value="Администратор" style="text;html=1;strokeColor=none;fillColor=none;align=center;verticalAlign=middle;whiteSpace=wrap;rounded=0;" vertex="1" parent="1">
          <mxGeometry x="110" y="60" width="120" height="30" as="geometry" />
        </mxCell>
        <mxCell id="Fm9rnHp7RG0YBLzyEwUu-11" value="" style="endArrow=classic;html=1;rounded=0;entryX=0.5;entryY=0;entryDx=0;entryDy=0;" edge="1" parent="1" target="Fm9rnHp7RG0YBLzyEwUu-2">
          <mxGeometry width="50" height="50" relative="1" as="geometry">
            <mxPoint x="375" y="70" as="sourcePoint" />
            <mxPoint x="390" y="60" as="targetPoint" />
          </mxGeometry>
        </mxCell>
        <mxCell id="Fm9rnHp7RG0YBLzyEwUu-12" value="Тех. задание" style="text;html=1;strokeColor=none;fillColor=none;align=center;verticalAlign=middle;whiteSpace=wrap;rounded=0;" vertex="1" parent="1">
          <mxGeometry x="384" y="70" width="60" height="30" as="geometry" />
        </mxCell>
        <mxCell id="Fm9rnHp7RG0YBLzyEwUu-13" value="" style="endArrow=classic;html=1;rounded=0;entryX=0.5;entryY=1;entryDx=0;entryDy=0;" edge="1" parent="1" target="Fm9rnHp7RG0YBLzyEwUu-2">
          <mxGeometry width="50" height="50" relative="1" as="geometry">
            <mxPoint x="375" y="320" as="sourcePoint" />
            <mxPoint x="360" y="280" as="targetPoint" />
          </mxGeometry>
        </mxCell>
        <mxCell id="Fm9rnHp7RG0YBLzyEwUu-14" value="Разработчик" style="text;html=1;strokeColor=none;fillColor=none;align=center;verticalAlign=middle;whiteSpace=wrap;rounded=0;" vertex="1" parent="1">
          <mxGeometry x="390" y="270" width="100" height="30" as="geometry" />
        </mxCell>
        <mxCell id="Fm9rnHp7RG0YBLzyEwUu-15" value="Упорядочение данных" style="rounded=0;whiteSpace=wrap;html=1;" vertex="1" parent="1">
          <mxGeometry x="120" y="470" width="120" height="60" as="geometry" />
        </mxCell>
        <mxCell id="Fm9rnHp7RG0YBLzyEwUu-16" value="Создание инструментов для оптимизации" style="rounded=0;whiteSpace=wrap;html=1;" vertex="1" parent="1">
          <mxGeometry x="315" y="550" width="120" height="60" as="geometry" />
        </mxCell>
        <mxCell id="Fm9rnHp7RG0YBLzyEwUu-17" value="Дизайн интерфейса" style="rounded=0;whiteSpace=wrap;html=1;" vertex="1" parent="1">
          <mxGeometry x="550" y="630" width="120" height="60" as="geometry" />
        </mxCell>
        <mxCell id="Fm9rnHp7RG0YBLzyEwUu-18" value="" style="endArrow=classic;html=1;rounded=0;entryX=0;entryY=0.5;entryDx=0;entryDy=0;" edge="1" parent="1" target="Fm9rnHp7RG0YBLzyEwUu-15">
          <mxGeometry width="50" height="50" relative="1" as="geometry">
            <mxPoint x="70" y="500" as="sourcePoint" />
            <mxPoint x="80" y="490" as="targetPoint" />
          </mxGeometry>
        </mxCell>
        <mxCell id="Fm9rnHp7RG0YBLzyEwUu-19" value="" style="endArrow=classic;html=1;rounded=0;exitX=1;exitY=0.5;exitDx=0;exitDy=0;entryX=0;entryY=0.5;entryDx=0;entryDy=0;" edge="1" parent="1" source="Fm9rnHp7RG0YBLzyEwUu-15" target="Fm9rnHp7RG0YBLzyEwUu-16">
          <mxGeometry width="50" height="50" relative="1" as="geometry">
            <mxPoint x="240" y="580" as="sourcePoint" />
            <mxPoint x="290" y="530" as="targetPoint" />
            <Array as="points">
              <mxPoint x="280" y="500" />
              <mxPoint x="280" y="580" />
            </Array>
          </mxGeometry>
        </mxCell>
        <mxCell id="Fm9rnHp7RG0YBLzyEwUu-20" value="" style="endArrow=classic;html=1;rounded=0;entryX=0;entryY=0.5;entryDx=0;entryDy=0;exitX=1;exitY=0.5;exitDx=0;exitDy=0;" edge="1" parent="1" source="Fm9rnHp7RG0YBLzyEwUu-16" target="Fm9rnHp7RG0YBLzyEwUu-17">
          <mxGeometry width="50" height="50" relative="1" as="geometry">
            <mxPoint x="460" y="690" as="sourcePoint" />
            <mxPoint x="510" y="640" as="targetPoint" />
            <Array as="points">
              <mxPoint x="480" y="580" />
              <mxPoint x="480" y="660" />
            </Array>
          </mxGeometry>
        </mxCell>
        <mxCell id="Fm9rnHp7RG0YBLzyEwUu-21" value="" style="endArrow=classic;html=1;rounded=0;entryX=0.5;entryY=0;entryDx=0;entryDy=0;" edge="1" parent="1" target="Fm9rnHp7RG0YBLzyEwUu-15">
          <mxGeometry width="50" height="50" relative="1" as="geometry">
            <mxPoint x="180" y="370" as="sourcePoint" />
            <mxPoint x="180" y="300" as="targetPoint" />
          </mxGeometry>
        </mxCell>
        <mxCell id="Fm9rnHp7RG0YBLzyEwUu-22" value="" style="endArrow=classic;html=1;rounded=0;entryX=0.5;entryY=1;entryDx=0;entryDy=0;" edge="1" parent="1" target="Fm9rnHp7RG0YBLzyEwUu-15">
          <mxGeometry width="50" height="50" relative="1" as="geometry">
            <mxPoint x="180" y="760" as="sourcePoint" />
            <mxPoint x="179.5" y="550" as="targetPoint" />
          </mxGeometry>
        </mxCell>
        <mxCell id="Fm9rnHp7RG0YBLzyEwUu-23" value="" style="endArrow=classic;html=1;rounded=0;entryX=0.5;entryY=0;entryDx=0;entryDy=0;" edge="1" parent="1">
          <mxGeometry width="50" height="50" relative="1" as="geometry">
            <mxPoint x="370" y="430" as="sourcePoint" />
            <mxPoint x="609.5" y="630" as="targetPoint" />
            <Array as="points">
              <mxPoint x="610" y="430" />
            </Array>
          </mxGeometry>
        </mxCell>
        <mxCell id="Fm9rnHp7RG0YBLzyEwUu-25" value="" style="endArrow=classic;html=1;rounded=0;entryX=0.5;entryY=0;entryDx=0;entryDy=0;" edge="1" parent="1">
          <mxGeometry width="50" height="50" relative="1" as="geometry">
            <mxPoint x="180" y="430" as="sourcePoint" />
            <mxPoint x="374.5" y="550" as="targetPoint" />
            <Array as="points">
              <mxPoint x="375" y="430" />
            </Array>
          </mxGeometry>
        </mxCell>
        <mxCell id="Fm9rnHp7RG0YBLzyEwUu-26" value="" style="endArrow=classic;html=1;rounded=0;" edge="1" parent="1">
          <mxGeometry width="50" height="50" relative="1" as="geometry">
            <mxPoint x="360" y="720" as="sourcePoint" />
            <mxPoint x="620" y="690" as="targetPoint" />
            <Array as="points">
              <mxPoint x="620" y="720" />
            </Array>
          </mxGeometry>
        </mxCell>
        <mxCell id="Fm9rnHp7RG0YBLzyEwUu-27" value="" style="endArrow=classic;html=1;rounded=0;entryX=0.5;entryY=1;entryDx=0;entryDy=0;" edge="1" parent="1" target="Fm9rnHp7RG0YBLzyEwUu-16">
          <mxGeometry width="50" height="50" relative="1" as="geometry">
            <mxPoint x="180" y="720" as="sourcePoint" />
            <mxPoint x="310" y="700" as="targetPoint" />
            <Array as="points">
              <mxPoint x="375" y="720" />
            </Array>
          </mxGeometry>
        </mxCell>
        <mxCell id="Fm9rnHp7RG0YBLzyEwUu-28" value="Тех. задание" style="text;html=1;strokeColor=none;fillColor=none;align=center;verticalAlign=middle;whiteSpace=wrap;rounded=0;" vertex="1" parent="1">
          <mxGeometry x="180" y="360" width="60" height="30" as="geometry" />
        </mxCell>
        <mxCell id="Fm9rnHp7RG0YBLzyEwUu-29" value="Разработчик" style="text;html=1;strokeColor=none;fillColor=none;align=center;verticalAlign=middle;whiteSpace=wrap;rounded=0;" vertex="1" parent="1">
          <mxGeometry x="185" y="730" width="90" height="30" as="geometry" />
        </mxCell>
        <mxCell id="Fm9rnHp7RG0YBLzyEwUu-30" value="" style="endArrow=classic;html=1;rounded=0;exitX=1;exitY=0.5;exitDx=0;exitDy=0;" edge="1" parent="1" source="Fm9rnHp7RG0YBLzyEwUu-17">
          <mxGeometry width="50" height="50" relative="1" as="geometry">
            <mxPoint x="690" y="670" as="sourcePoint" />
            <mxPoint x="740" y="660" as="targetPoint" />
          </mxGeometry>
        </mxCell>
        <mxCell id="Fm9rnHp7RG0YBLzyEwUu-31" value="Данные о мебели" style="text;html=1;strokeColor=none;fillColor=none;align=center;verticalAlign=middle;whiteSpace=wrap;rounded=0;" vertex="1" parent="1">
          <mxGeometry x="50" y="440" width="60" height="30" as="geometry" />
        </mxCell>
        <mxCell id="Fm9rnHp7RG0YBLzyEwUu-32" value="Программное решение" style="text;html=1;strokeColor=none;fillColor=none;align=center;verticalAlign=middle;whiteSpace=wrap;rounded=0;" vertex="1" parent="1">
          <mxGeometry x="680" y="610" width="80" height="30" as="geometry" />
        </mxCell>
        <mxCell id="Fm9rnHp7RG0YBLzyEwUu-33" value="А1" style="text;html=1;strokeColor=none;fillColor=none;align=center;verticalAlign=middle;whiteSpace=wrap;rounded=0;" vertex="1" parent="1">
          <mxGeometry x="180" y="500" width="60" height="30" as="geometry" />
        </mxCell>
        <mxCell id="Fm9rnHp7RG0YBLzyEwUu-34" value="А2" style="text;html=1;strokeColor=none;fillColor=none;align=center;verticalAlign=middle;whiteSpace=wrap;rounded=0;" vertex="1" parent="1">
          <mxGeometry x="390" y="585" width="60" height="30" as="geometry" />
        </mxCell>
        <mxCell id="Fm9rnHp7RG0YBLzyEwUu-35" value="А3" style="text;html=1;strokeColor=none;fillColor=none;align=center;verticalAlign=middle;whiteSpace=wrap;rounded=0;" vertex="1" parent="1">
          <mxGeometry x="610" y="660" width="60" height="30" as="geometry" />
        </mxCell>
        <mxCell id="Fm9rnHp7RG0YBLzyEwUu-40" value="" style="rounded=0;whiteSpace=wrap;html=1;" vertex="1" parent="1">
          <mxGeometry x="120" y="890" width="120" height="60" as="geometry" />
        </mxCell>
        <mxCell id="Fm9rnHp7RG0YBLzyEwUu-41" value="" style="rounded=0;whiteSpace=wrap;html=1;" vertex="1" parent="1">
          <mxGeometry x="315" y="990" width="120" height="60" as="geometry" />
        </mxCell>
        <mxCell id="Fm9rnHp7RG0YBLzyEwUu-42" value="" style="rounded=0;whiteSpace=wrap;html=1;" vertex="1" parent="1">
          <mxGeometry x="565" y="1070" width="120" height="60" as="geometry" />
        </mxCell>
        <mxCell id="Fm9rnHp7RG0YBLzyEwUu-43" value="" style="endArrow=classic;html=1;rounded=0;entryX=0;entryY=0.5;entryDx=0;entryDy=0;" edge="1" parent="1" target="Fm9rnHp7RG0YBLzyEwUu-41">
          <mxGeometry width="50" height="50" relative="1" as="geometry">
            <mxPoint x="240" y="920" as="sourcePoint" />
            <mxPoint x="290" y="870" as="targetPoint" />
            <Array as="points">
              <mxPoint x="280" y="920" />
              <mxPoint x="280" y="1020" />
            </Array>
          </mxGeometry>
        </mxCell>
        <mxCell id="Fm9rnHp7RG0YBLzyEwUu-44" value="" style="endArrow=classic;html=1;rounded=0;entryX=0;entryY=0.5;entryDx=0;entryDy=0;exitX=1;exitY=0.5;exitDx=0;exitDy=0;" edge="1" parent="1" source="Fm9rnHp7RG0YBLzyEwUu-41" target="Fm9rnHp7RG0YBLzyEwUu-42">
          <mxGeometry width="50" height="50" relative="1" as="geometry">
            <mxPoint x="450" y="1090" as="sourcePoint" />
            <mxPoint x="500" y="1040" as="targetPoint" />
            <Array as="points">
              <mxPoint x="480" y="1020" />
              <mxPoint x="480" y="1100" />
            </Array>
          </mxGeometry>
        </mxCell>
        <mxCell id="Fm9rnHp7RG0YBLzyEwUu-45" value="Упорядоченные данные" style="text;html=1;strokeColor=none;fillColor=none;align=center;verticalAlign=middle;whiteSpace=wrap;rounded=0;" vertex="1" parent="1">
          <mxGeometry x="270" y="470" width="100" height="30" as="geometry" />
        </mxCell>
        <mxCell id="Fm9rnHp7RG0YBLzyEwUu-46" value="Программа без интерфейса" style="text;html=1;strokeColor=none;fillColor=none;align=center;verticalAlign=middle;whiteSpace=wrap;rounded=0;" vertex="1" parent="1">
          <mxGeometry x="460" y="545" width="90" height="30" as="geometry" />
        </mxCell>
        <mxCell id="Fm9rnHp7RG0YBLzyEwUu-47" value="" style="endArrow=classic;html=1;rounded=0;entryX=0.5;entryY=1;entryDx=0;entryDy=0;" edge="1" parent="1" target="Fm9rnHp7RG0YBLzyEwUu-40">
          <mxGeometry width="50" height="50" relative="1" as="geometry">
            <mxPoint x="180" y="1270" as="sourcePoint" />
            <mxPoint x="170" y="1010" as="targetPoint" />
            <Array as="points">
              <mxPoint x="180" y="1220" />
            </Array>
          </mxGeometry>
        </mxCell>
        <mxCell id="Fm9rnHp7RG0YBLzyEwUu-48" value="" style="endArrow=classic;html=1;rounded=0;entryX=0.5;entryY=1;entryDx=0;entryDy=0;" edge="1" parent="1" target="Fm9rnHp7RG0YBLzyEwUu-41">
          <mxGeometry width="50" height="50" relative="1" as="geometry">
            <mxPoint x="180" y="1210" as="sourcePoint" />
            <mxPoint x="380" y="1090" as="targetPoint" />
            <Array as="points">
              <mxPoint x="375" y="1210" />
            </Array>
          </mxGeometry>
        </mxCell>
        <mxCell id="Fm9rnHp7RG0YBLzyEwUu-49" value="" style="endArrow=classic;html=1;rounded=0;entryX=0.5;entryY=1;entryDx=0;entryDy=0;" edge="1" parent="1" target="Fm9rnHp7RG0YBLzyEwUu-42">
          <mxGeometry width="50" height="50" relative="1" as="geometry">
            <mxPoint x="370" y="1210" as="sourcePoint" />
            <mxPoint x="620" y="1170" as="targetPoint" />
            <Array as="points">
              <mxPoint x="625" y="1210" />
            </Array>
          </mxGeometry>
        </mxCell>
        <mxCell id="Fm9rnHp7RG0YBLzyEwUu-50" value="" style="endArrow=classic;html=1;rounded=0;entryX=0;entryY=0.5;entryDx=0;entryDy=0;" edge="1" parent="1" target="Fm9rnHp7RG0YBLzyEwUu-40">
          <mxGeometry width="50" height="50" relative="1" as="geometry">
            <mxPoint x="30" y="920" as="sourcePoint" />
            <mxPoint x="80" y="920" as="targetPoint" />
          </mxGeometry>
        </mxCell>
        <mxCell id="Fm9rnHp7RG0YBLzyEwUu-51" value="" style="endArrow=classic;html=1;rounded=0;entryX=0.5;entryY=0;entryDx=0;entryDy=0;" edge="1" parent="1" target="Fm9rnHp7RG0YBLzyEwUu-40">
          <mxGeometry width="50" height="50" relative="1" as="geometry">
            <mxPoint x="180" y="850" as="sourcePoint" />
            <mxPoint x="200" y="840" as="targetPoint" />
          </mxGeometry>
        </mxCell>
        <mxCell id="Fm9rnHp7RG0YBLzyEwUu-52" value="" style="endArrow=classic;html=1;rounded=0;entryX=0.5;entryY=0;entryDx=0;entryDy=0;" edge="1" parent="1" target="Fm9rnHp7RG0YBLzyEwUu-41">
          <mxGeometry width="50" height="50" relative="1" as="geometry">
            <mxPoint x="180" y="860" as="sourcePoint" />
            <mxPoint x="370" y="870" as="targetPoint" />
            <Array as="points">
              <mxPoint x="375" y="860" />
            </Array>
          </mxGeometry>
        </mxCell>
        <mxCell id="Fm9rnHp7RG0YBLzyEwUu-53" value="" style="endArrow=classic;html=1;rounded=0;entryX=0.5;entryY=0;entryDx=0;entryDy=0;" edge="1" parent="1" target="Fm9rnHp7RG0YBLzyEwUu-42">
          <mxGeometry width="50" height="50" relative="1" as="geometry">
            <mxPoint x="360" y="860" as="sourcePoint" />
            <mxPoint x="560" y="880" as="targetPoint" />
            <Array as="points">
              <mxPoint x="620" y="860" />
            </Array>
          </mxGeometry>
        </mxCell>
        <mxCell id="Fm9rnHp7RG0YBLzyEwUu-54" value="" style="endArrow=classic;html=1;rounded=0;exitX=1;exitY=0.5;exitDx=0;exitDy=0;" edge="1" parent="1" source="Fm9rnHp7RG0YBLzyEwUu-42">
          <mxGeometry width="50" height="50" relative="1" as="geometry">
            <mxPoint x="710" y="1120" as="sourcePoint" />
            <mxPoint x="760" y="1100" as="targetPoint" />
          </mxGeometry>
        </mxCell>
        <mxCell id="Fm9rnHp7RG0YBLzyEwUu-55" value="Данные о мебели" style="text;html=1;strokeColor=none;fillColor=none;align=center;verticalAlign=middle;whiteSpace=wrap;rounded=0;" vertex="1" parent="1">
          <mxGeometry x="50" y="880" width="60" height="30" as="geometry" />
        </mxCell>
        <mxCell id="Fm9rnHp7RG0YBLzyEwUu-56" value="Тех. задание" style="text;html=1;strokeColor=none;fillColor=none;align=center;verticalAlign=middle;whiteSpace=wrap;rounded=0;" vertex="1" parent="1">
          <mxGeometry x="185" y="820" width="60" height="30" as="geometry" />
        </mxCell>
        <mxCell id="Fm9rnHp7RG0YBLzyEwUu-57" value="Text" style="text;html=1;strokeColor=none;fillColor=none;align=center;verticalAlign=middle;whiteSpace=wrap;rounded=0;" vertex="1" parent="1">
          <mxGeometry x="255" y="890" width="60" height="30" as="geometry" />
        </mxCell>
        <mxCell id="Fm9rnHp7RG0YBLzyEwUu-58" value="Text" style="text;html=1;strokeColor=none;fillColor=none;align=center;verticalAlign=middle;whiteSpace=wrap;rounded=0;" vertex="1" parent="1">
          <mxGeometry x="450" y="980" width="60" height="30" as="geometry" />
        </mxCell>
        <mxCell id="Fm9rnHp7RG0YBLzyEwUu-59" value="Упорядоченные данные" style="text;html=1;strokeColor=none;fillColor=none;align=center;verticalAlign=middle;whiteSpace=wrap;rounded=0;" vertex="1" parent="1">
          <mxGeometry x="700" y="1060" width="100" height="30" as="geometry" />
        </mxCell>
        <mxCell id="Fm9rnHp7RG0YBLzyEwUu-60" value="Разработчик" style="text;html=1;strokeColor=none;fillColor=none;align=center;verticalAlign=middle;whiteSpace=wrap;rounded=0;" vertex="1" parent="1">
          <mxGeometry x="200" y="1230" width="80" height="30" as="geometry" />
        </mxCell>
        <mxCell id="Fm9rnHp7RG0YBLzyEwUu-61" value="А11" style="text;html=1;strokeColor=none;fillColor=none;align=center;verticalAlign=middle;whiteSpace=wrap;rounded=0;" vertex="1" parent="1">
          <mxGeometry x="180" y="920" width="60" height="30" as="geometry" />
        </mxCell>
        <mxCell id="Fm9rnHp7RG0YBLzyEwUu-62" value="А12" style="text;html=1;strokeColor=none;fillColor=none;align=center;verticalAlign=middle;whiteSpace=wrap;rounded=0;" vertex="1" parent="1">
          <mxGeometry x="375" y="1020" width="60" height="30" as="geometry" />
        </mxCell>
        <mxCell id="Fm9rnHp7RG0YBLzyEwUu-63" value="А13" style="text;html=1;strokeColor=none;fillColor=none;align=center;verticalAlign=middle;whiteSpace=wrap;rounded=0;" vertex="1" parent="1">
          <mxGeometry x="625" y="1100" width="60" height="30" as="geometry" />
        </mxCell>
      </root>
    </mxGraphModel>
  </diagram>
</mxfile>
